<svg xmlns="http://www.w3.org/2000/svg" width="163.852" height="23.92" viewBox="0 0 163.852 23.92"><g id="logotype" transform="translate(0.003 -0.025)"><g id="Group_127" data-name="Group 127" transform="translate(-0.003 0.025)"><g id="Group_126" data-name="Group 126"><path id="Path_360" data-name="Path 360" d="M8.83,2.58.755,16.038a5.213,5.213,0,0,0,4.458,7.907h16.15a5.213,5.213,0,0,0,4.458-7.907L17.746,2.58A5.167,5.167,0,0,0,8.83,2.58Zm7.949.589,8.117,13.5A2.858,2.858,0,0,1,22.456,21H6.222a2.845,2.845,0,0,1-2.439-4.332L11.9,3.169A2.838,2.838,0,0,1,16.779,3.169Z" transform="translate(0.003 -0.025)" fill="#daab6b"></path><path id="Path_361" data-name="Path 361" d="M24.465,12.809l-5.383,8.958a2.078,2.078,0,0,0,1.766,3.154H31.614a2.078,2.078,0,0,0,1.766-3.154L28,12.809A2.05,2.05,0,0,0,24.465,12.809Zm3.491,2.145L31.488,20.8a.8.8,0,0,1-.673,1.22H23.75a.79.79,0,0,1-.673-1.22l3.533-5.846A.757.757,0,0,1,27.956,14.954Z" transform="translate(-10.879 -6.848)" fill="#daab6b"></path></g></g><g id="Group_129" data-name="Group 129" transform="translate(32.802 1.318)"><g id="Group_128" data-name="Group 128"><path id="Path_362" data-name="Path 362" d="M84.056,26.028a5.928,5.928,0,0,1-4.374-1.682A5.831,5.831,0,0,1,78,20.014a5.862,5.862,0,0,1,1.724-4.332A6.125,6.125,0,0,1,84.182,14a6.249,6.249,0,0,1,3.2.841,5.179,5.179,0,0,1,2.145,2.313l-2.229,1.22a3.387,3.387,0,0,0-3.07-1.808,3.329,3.329,0,0,0-2.481,1.009,3.392,3.392,0,0,0-.967,2.481,3.461,3.461,0,0,0,.967,2.481,3.144,3.144,0,0,0,2.4,1.009,3.565,3.565,0,0,0,1.808-.5,2.9,2.9,0,0,0,1.262-1.3l2.229,1.3a5.571,5.571,0,0,1-2.187,2.229A6.764,6.764,0,0,1,84.056,26.028Z" transform="translate(-78 -9.416)" fill="#2fad6f"></path><path id="Path_363" data-name="Path 363" d="M119.85,19.92c0,.379-.042.757-.084,1.22h-8.748a3.3,3.3,0,0,0,1.178,1.935,3.741,3.741,0,0,0,2.355.715,6.408,6.408,0,0,0,3.785-1.178l1.093,1.977a8.266,8.266,0,0,1-5,1.6,7.106,7.106,0,0,1-2.776-.5,5.67,5.67,0,0,1-1.977-1.346,5.414,5.414,0,0,1-1.093-1.893,6.53,6.53,0,0,1-.379-2.229,5.8,5.8,0,0,1,1.64-4.29,5.862,5.862,0,0,1,4.332-1.724,5.549,5.549,0,0,1,4.079,1.556A5.386,5.386,0,0,1,119.85,19.92Zm-5.72-3.491a3.228,3.228,0,0,0-2.061.715,3.3,3.3,0,0,0-1.093,1.893h6.14a2.949,2.949,0,0,0-.967-1.893A3.033,3.033,0,0,0,114.13,16.429Z" transform="translate(-95.499 -9.532)" fill="#2fad6f"></path><path id="Path_364" data-name="Path 364" d="M143.734,25.776H141V14.294h2.692v1.6a3.262,3.262,0,0,1,1.43-1.388,4.657,4.657,0,0,1,2.187-.5,4.444,4.444,0,0,1,3.2,1.262,4.635,4.635,0,0,1,1.3,3.533v7.023h-2.776V19.551a3.359,3.359,0,0,0-.673-2.229,2.248,2.248,0,0,0-1.85-.8,2.762,2.762,0,0,0-2.019.841,3.279,3.279,0,0,0-.8,2.229l.042,6.182Z" transform="translate(-114.505 -9.416)" fill="#2fad6f"></path><path id="Path_365" data-name="Path 365" d="M202.35,19.92c0,.379-.042.757-.084,1.22h-8.748a3.3,3.3,0,0,0,1.178,1.935,3.741,3.741,0,0,0,2.355.715,6.408,6.408,0,0,0,3.785-1.178l1.093,1.977a8.266,8.266,0,0,1-5,1.6,7.106,7.106,0,0,1-2.776-.5,5.67,5.67,0,0,1-1.977-1.346,5.414,5.414,0,0,1-1.093-1.893,6.53,6.53,0,0,1-.379-2.229,5.8,5.8,0,0,1,1.64-4.29,5.862,5.862,0,0,1,4.332-1.724,5.549,5.549,0,0,1,4.079,1.556A5.242,5.242,0,0,1,202.35,19.92Zm-5.678-3.491a3.228,3.228,0,0,0-2.061.715,3.3,3.3,0,0,0-1.093,1.893h6.14a2.949,2.949,0,0,0-.967-1.893A3.033,3.033,0,0,0,196.672,16.429Z" transform="translate(-143.303 -9.532)" fill="#2fad6f"></path><path id="Path_366" data-name="Path 366" d="M226.276,25.776H223.5V14.294h2.65v1.6a3.444,3.444,0,0,1,3.2-1.893,4.037,4.037,0,0,1,1.388.252l-.252,2.65a4.183,4.183,0,0,0-1.346-.252,2.641,2.641,0,0,0-2.1.883,3.984,3.984,0,0,0-.8,2.65v5.593Z" transform="translate(-162.308 -9.416)" fill="#2fad6f"></path><path id="Path_367" data-name="Path 367" d="M247.956,26.028a5.928,5.928,0,0,1-4.374-1.682,5.831,5.831,0,0,1-1.682-4.332,5.862,5.862,0,0,1,1.724-4.332A6.125,6.125,0,0,1,248.082,14a6.249,6.249,0,0,1,3.2.841,5.179,5.179,0,0,1,2.145,2.313l-2.229,1.22a3.387,3.387,0,0,0-3.07-1.808,3.329,3.329,0,0,0-2.481,1.009,3.392,3.392,0,0,0-.967,2.481,3.461,3.461,0,0,0,.967,2.481,3.144,3.144,0,0,0,2.4,1.009,3.565,3.565,0,0,0,1.808-.5,2.9,2.9,0,0,0,1.262-1.3l2.229,1.3a5.571,5.571,0,0,1-2.187,2.229A6.764,6.764,0,0,1,247.956,26.028Z" transform="translate(-172.97 -9.416)" fill="#2fad6f"></path><path id="Path_368" data-name="Path 368" d="M276.434,25.776H273.7V14.294h2.65v1.6a3.444,3.444,0,0,1,3.2-1.893,4.037,4.037,0,0,1,1.388.252l-.252,2.65a4.183,4.183,0,0,0-1.346-.252,2.641,2.641,0,0,0-2.1.883,3.984,3.984,0,0,0-.8,2.65v5.593Z" transform="translate(-191.396 -9.416)" fill="#2fad6f"></path><path id="Path_369" data-name="Path 369" d="M303.65,19.92c0,.379-.042.757-.084,1.22h-8.748A3.3,3.3,0,0,0,296,23.074a3.741,3.741,0,0,0,2.355.715,6.408,6.408,0,0,0,3.785-1.178l1.093,1.977a8.266,8.266,0,0,1-5,1.6,7.106,7.106,0,0,1-2.776-.5,5.669,5.669,0,0,1-1.977-1.346,5.414,5.414,0,0,1-1.093-1.893A6.53,6.53,0,0,1,292,20.214a5.8,5.8,0,0,1,1.64-4.29,5.862,5.862,0,0,1,4.332-1.724,5.549,5.549,0,0,1,4.079,1.556A5.386,5.386,0,0,1,303.65,19.92Zm-5.678-3.491a3.229,3.229,0,0,0-2.061.715,3.3,3.3,0,0,0-1.093,1.893h6.14a2.949,2.949,0,0,0-.967-1.893A3.2,3.2,0,0,0,297.972,16.429Z" transform="translate(-202 -9.532)" fill="#2fad6f"></path><path id="Path_370" data-name="Path 370" d="M332.636,9.856V3.8h2.734V19.908h-2.692V18.394a4.539,4.539,0,0,1-3.659,1.766,5.365,5.365,0,0,1-4.079-1.724A6.106,6.106,0,0,1,323.3,14.1a6.075,6.075,0,0,1,1.64-4.29A5.282,5.282,0,0,1,329.02,8.09,4.46,4.46,0,0,1,332.636,9.856Zm-3.238,7.78a3.172,3.172,0,0,0,2.439-1.009,3.5,3.5,0,0,0,.925-2.481,3.533,3.533,0,0,0-.967-2.481,3.082,3.082,0,0,0-2.4-1.009,3.022,3.022,0,0,0-2.4,1.009,3.5,3.5,0,0,0-.925,2.481A3.5,3.5,0,0,0,327,16.627,3.082,3.082,0,0,0,329.4,17.636Z" transform="translate(-220.136 -3.506)" fill="#2fad6f"></path><path id="Path_371" data-name="Path 371" d="M359.766,6.591A1.725,1.725,0,0,1,358,4.824a1.556,1.556,0,0,1,.5-1.22,1.712,1.712,0,0,1,1.262-.5,1.556,1.556,0,0,1,1.22.5,1.684,1.684,0,0,1,.5,1.22,1.712,1.712,0,0,1-.5,1.262A1.556,1.556,0,0,1,359.766,6.591Zm1.346,1.388V19.46h-2.776V7.979Z" transform="translate(-240.243 -3.1)" fill="#2fad6f"></path><path id="Path_372" data-name="Path 372" d="M378.693,17.743l.883,2.145a5.642,5.642,0,0,1-3.322.967c-2.607,0-3.953-1.514-3.953-4.5L372.342,5h2.734V9.079h3.869v2.313h-3.869v4.836c0,1.388.547,2.061,1.682,2.061A3.488,3.488,0,0,0,378.693,17.743Z" transform="translate(-248.529 -4.201)" fill="#2fad6f"></path><path id="Path_373" data-name="Path 373" d="M178.193,17.743l.883,2.145a5.642,5.642,0,0,1-3.322.967c-2.607,0-3.953-1.514-3.953-4.5L171.842,5h2.734V9.079h3.869v2.313h-3.869v4.836c0,1.388.547,2.061,1.682,2.061A3.4,3.4,0,0,0,178.193,17.743Z" transform="translate(-132.351 -4.201)" fill="#2fad6f"></path></g></g></g></svg>