<svg xmlns="http://www.w3.org/2000/svg" width="115" height="26.285" viewBox="0 0 115 26.285"><g id="Logo" transform="translate(0 -0.5)"><path id="Path_358" data-name="Path 358" d="M13.757,14.588c2.352.363,2.67,1.755,2.86,3.05l.032.221.022.15.115.762a52.392,52.392,0,0,1,.692,6.054,2.751,2.751,0,0,1-.1.863,1.649,1.649,0,0,1-.838.707,13.4,13.4,0,0,1-3.208.39c-.117,0-.232-.006-.348-.009a1.592,1.592,0,0,1-.961-.629c-.537-.874-.57-2.823-.58-5.1v-.264l0-.682c-.017-2.41-.033-4.488.843-5.234A1.763,1.763,0,0,1,13.757,14.588ZM8.628,19.836c.51-.029.838,2.479.9,4.38.046,1.324-.093,1.868-.315,2.064q-.377-.126-.741-.273A4.073,4.073,0,0,1,8.11,24.64C7.869,22.73,8.078,19.869,8.628,19.836Zm12.78,3.747a1.606,1.606,0,0,1-.132.422,12.518,12.518,0,0,1-1.373.96c-.153.026-.288.008-.355-.1-.635-1.116-.874-4.619-.259-4.923C20.09,19.55,21.527,22.977,21.408,23.583ZM13.143.5A13.085,13.085,0,0,1,26.282,13.221l0,.244v.113a12.889,12.889,0,0,1-3.117,8.357,1.518,1.518,0,0,1-.429-.5,14.152,14.152,0,0,1-2.306-7.173c0-.715,1.031-1.833,1.943-2.813a9.137,9.137,0,0,0,1.566-1.981c.3-.706.091-1.2-.244-1.366-.3-.149-.759-.04-1.079.528a4.48,4.48,0,0,1-1.458,1.706c-.753.615-1.951,1.233-1.951.432a9.434,9.434,0,0,1,1-2.1c.336-.694-.026-1.2-.721-1.2-1.364,0-2.27,1.738-2.27,2.34s.292.687.292,1.388-1.5,1.621-2.907,1.621c-1.358,0-2.145-.275-2.471-1.049l-.042-.109-.094-.279A13.754,13.754,0,0,0,11,8.961a3.281,3.281,0,0,0-.86-.9,1.572,1.572,0,0,1-.629-.783c-.039-.2-.059-.59.6-1.48s.752-1.552.422-1.9a.809.809,0,0,0-.586-.2,2.636,2.636,0,0,0-1.771.92,2.431,2.431,0,0,0-.446,2.5c0,.44-.189.689-.808,1.288s-.839,1.118-.91,3.191a7.31,7.31,0,0,1-.384,2.228A5.129,5.129,0,0,0,5.343,15.4a5.708,5.708,0,0,0,.248,1.718,10.741,10.741,0,0,1,.376,2.009A12.415,12.415,0,0,1,5.794,23.1l-.072.317-.017.091a1.824,1.824,0,0,1-.21.594A12.994,12.994,0,0,1,13.143.5Z" fill="#f14635" fill-rule="evenodd"></path><path id="Path_359" data-name="Path 359" d="M84.339,10.583a3.634,3.634,0,0,1,3.033,1.381,6.009,6.009,0,0,1,1.082,3.8v.15a5.938,5.938,0,0,1-1.107,3.77,3.6,3.6,0,0,1-2.989,1.41,3.1,3.1,0,0,1-2.389-1.021v5.113H78.682V10.77h3.072l.1.937A3.092,3.092,0,0,1,84.339,10.583Zm-22.917,0a4.932,4.932,0,0,1,3.189.946,3.234,3.234,0,0,1,1.2,2.594V18.61a4.441,4.441,0,0,0,.449,2.135V20.9H62.972A3.47,3.47,0,0,1,62.66,20a3.11,3.11,0,0,1-2.536,1.1,3.839,3.839,0,0,1-2.536-.866,2.714,2.714,0,0,1-1.044-2.178,2.8,2.8,0,0,1,1.268-2.491,6.669,6.669,0,0,1,3.686-.843h1.014v-.534q0-1.4-1.258-1.4-1.17,0-1.17,1.105H56.8A2.8,2.8,0,0,1,58.1,11.5,5.63,5.63,0,0,1,61.421,10.583Zm10.7,0a5.639,5.639,0,0,1,3.355.908,2.807,2.807,0,0,1,1.268,2.388h-3.3q0-1.217-1.336-1.217a1.36,1.36,0,0,0-.868.276.844.844,0,0,0-.351.688.781.781,0,0,0,.429.684,4.168,4.168,0,0,0,1.37.431,12.26,12.26,0,0,1,1.653.4q2.38.787,2.379,2.819A2.629,2.629,0,0,1,75.44,20.22a5.8,5.8,0,0,1-3.321.871,5.942,5.942,0,0,1-2.419-.468,4.019,4.019,0,0,1-1.658-1.274,2.81,2.81,0,0,1-.595-1.7H70.52a1.2,1.2,0,0,0,.488,1.026,2.067,2.067,0,0,0,1.2.323,1.626,1.626,0,0,0,1.009-.262.827.827,0,0,0,.336-.684.727.727,0,0,0-.439-.646,6.872,6.872,0,0,0-1.668-.506,7.81,7.81,0,0,1-2.029-.688A3.357,3.357,0,0,1,68.2,15.182a2.4,2.4,0,0,1-.419-1.4,2.765,2.765,0,0,1,1.2-2.3A5.084,5.084,0,0,1,72.12,10.583ZM47.427,6.5v6.78L52.079,6.5h4.233l-5.2,6.8,4.8,7.6H51.855l-3.023-5.076-1.4,1.48v3.6H44V6.5Zm46.342,4.27V20.9h-3.3V10.77Zm28.983,0v1.7l-4.7,5.994h4.808V20.9H113.9V19.143l4.681-5.938h-5.515l2.2-2.435ZM98.176,17.635A1.57,1.57,0,1,1,96.549,19.2,1.6,1.6,0,0,1,98.176,17.635ZM105.808,6.5v7.568l.332-.417,2.484-2.931h3.95l-3.705,4.127,3.95,5.908h-3.774l-2.307-3.738-.929.881v2.857h-3.3V6.5ZM62.514,16.4h-.956q-1.716,0-1.716,1.48a.887.887,0,0,0,.3.7,1.121,1.121,0,0,0,.77.267,1.892,1.892,0,0,0,1.019-.253,1.616,1.616,0,0,0,.58-.571Zm21.016-3.381a1.56,1.56,0,0,0-1.561.805v3.99a1.61,1.61,0,0,0,1.58.843q1.57,0,1.619-2.6v-.337Q85.168,13.018,83.529,13.018ZM92.166,6.5a1.643,1.643,0,1,1-1.627,1.643A1.635,1.635,0,0,1,92.166,6.5Z" transform="translate(-7.859 -1.072)"></path></g></svg>