<svg xmlns="http://www.w3.org/2000/svg" width="84.266" height="18.39" viewBox="0 0 84.266 18.39"><g id="Ozon_logo_RGB-blue" data-name="Ozon logo RGB-blue" transform="translate(-165 -155.5)"><path id="Path_374" data-name="Path 374" d="M200.2,169.183h-7.268l9.279-12.279a.623.623,0,0,0-.124-.865.613.613,0,0,0-.371-.124H188.288a2.146,2.146,0,1,0,0,4.291h6.033l-9.313,12.29a.613.613,0,0,0,.112.865.54.54,0,0,0,.382.124h14.683a2.149,2.149,0,0,0,0-4.291v-.011Zm46.913-13.267a2.153,2.153,0,0,0-2.146,2.146v7.2l-11.593-9.2a.611.611,0,0,0-.865.09.618.618,0,0,0-.135.393v14.8a2.146,2.146,0,1,0,4.291,0v-7.2l11.593,9.212a.624.624,0,0,0,.876-.1.61.61,0,0,0,.135-.382V158.061a2.155,2.155,0,0,0-2.157-2.146m-30.68,13.672c-4.909,0-8.572-2.584-8.572-4.9s3.674-4.9,8.572-4.9,8.572,2.584,8.572,4.9-3.651,4.9-8.572,4.9m0-14.087c-7.1,0-12.863,4.112-12.863,9.189s5.763,9.189,12.863,9.189,12.863-4.112,12.863-9.189-5.763-9.189-12.863-9.189M174.2,169.6a4.9,4.9,0,1,1,4.9-4.909v.011a4.909,4.909,0,0,1-4.9,4.9m0-14.1a9.195,9.195,0,1,0,9.189,9.2v-.011A9.2,9.2,0,0,0,174.2,155.5" transform="translate(0)" fill="#005bff"></path></g></svg>